<svg xmlns="http://www.w3.org/2000/svg" version="1.1" xmlns:xlink="http://www.w3.org/1999/xlink" xmlns:svgjs="http://svgjs.com/svgjs" width="512" height="512" x="0" y="0" viewBox="0 0 300 300" style="enable-background:new 0 0 512 512" xml:space="preserve" class=""><g><linearGradient id="SVGID_1_" gradientUnits="userSpaceOnUse" x1="52.846" x2="242.373" y1="248.937" y2="59.41"><stop stop-opacity="1" stop-color="#ff4069" offset="0"></stop><stop stop-opacity="1" stop-color="#ff4069" offset="1"></stop></linearGradient><g><path d="m236 110.276c-2.362 0-4.276-1.915-4.276-4.276s1.915-4.277 4.276-4.277 4.276 1.915 4.276 4.277-1.914 4.276-4.276 4.276zm.828 33.24-2.828 2.828-2.828-2.828c-1.562-1.562-4.094-1.562-5.656 0s-1.562 4.094 0 5.656l2.828 2.828-2.828 2.828c-1.562 1.562-1.562 4.094 0 5.656.781.781 1.805 1.172 2.828 1.172s2.047-.391 2.828-1.172l2.828-2.828 2.828 2.828c.781.781 1.805 1.172 2.828 1.172s2.047-.391 2.828-1.172c1.562-1.562 1.562-4.094 0-5.656l-2.828-2.828 2.828-2.828c1.562-1.562 1.562-4.094 0-5.656s-4.093-1.563-5.656 0zm-18.828-79.516c0-6.617 5.383-12 12-12s12 5.383 12 12-5.383 12-12 12-12-5.383-12-12zm8 0c0 2.205 1.793 4 4 4s4-1.795 4-4-1.793-4-4-4-4 1.795-4 4zm28 124v72c0 2.209-1.789 4-4 4h-88c-2.211 0-4-1.791-4-4v-12h-101.922c-5.558 0-10.078-4.52-10.078-10.076v-191.848c0-5.556 4.52-10.076 10.078-10.076h135.844c5.558 0 10.078 4.52 10.078 10.076v137.924h48c2.211 0 4 1.791 4 4zm-8 4h-24v4h24zm-56 0h-24v4h24zm-124-128v164h92v-40c0-2.209 1.789-4 4-4h20v-120h-16.43c-1.589 6.86-7.718 12-15.055 12h-53.031c-7.337 0-13.466-5.14-15.055-12zm31.484 4h53.031c4.125 0 7.484-3.357 7.484-7.484v-4.516h-67.999v4.516c0 4.127 3.359 7.484 7.484 7.484zm60.516 172v-4h-96c-2.211 0-4-1.791-4-4v-172c0-2.209 1.789-4 4-4h20v-4c0-2.209 1.789-4 4-4h76c2.211 0 4 1.791 4 4v4h20c2.211 0 4 1.791 4 4v124h4v-137.924c0-1.145-.934-2.076-2.078-2.076h-135.844c-1.144 0-2.078.932-2.078 2.076v191.848c0 1.145.934 2.076 2.078 2.076zm88 16v-52h-24v12c0 1.285-.617 2.492-1.66 3.244-.691.498-1.512.756-2.34.756-.426 0-.852-.068-1.266-.205l-10.734-3.578-10.734 3.578c-1.223.396-2.562.203-3.605-.551-1.043-.752-1.66-1.959-1.66-3.244v-12h-24v52zm-165.789-140.422 8 4c.562.281 1.176.422 1.789.422.602 0 1.203-.135 1.758-.406 1.121-.549 1.922-1.586 2.164-2.809l4-20c.434-2.166-.973-4.273-3.137-4.707-2.168-.434-4.273.969-4.707 3.137l-2.973 14.865-3.316-1.658c-1.973-.99-4.375-.189-5.367 1.789-.988 1.977-.188 4.379 1.789 5.367zm29.789-11.578h20c2.211 0 4-1.791 4-4s-1.789-4-4-4h-20c-2.211 0-4 1.791-4 4s1.789 4 4 4zm0 12h40c2.211 0 4-1.791 4-4s-1.789-4-4-4h-40c-2.211 0-4 1.791-4 4s1.789 4 4 4zm-29.789 35.578 8 4c.562.281 1.176.422 1.789.422.602 0 1.203-.135 1.758-.406 1.121-.549 1.922-1.586 2.164-2.809l4-20c.434-2.166-.973-4.273-3.137-4.707-2.168-.434-4.273.969-4.707 3.137l-2.973 14.865-3.316-1.658c-1.973-.988-4.375-.188-5.367 1.789-.988 1.977-.188 4.379 1.789 5.367zm29.789-11.578h20c2.211 0 4-1.791 4-4s-1.789-4-4-4h-20c-2.211 0-4 1.791-4 4s1.789 4 4 4zm0 12h40c2.211 0 4-1.791 4-4s-1.789-4-4-4h-40c-2.211 0-4 1.791-4 4s1.789 4 4 4zm-29.789 35.578 8 4c.562.281 1.176.422 1.789.422.602 0 1.203-.135 1.758-.406 1.121-.549 1.922-1.586 2.164-2.809l4-20c.434-2.166-.973-4.273-3.137-4.707-2.168-.432-4.273.969-4.707 3.137l-2.973 14.865-3.316-1.658c-1.973-.986-4.375-.188-5.367 1.789-.988 1.977-.188 4.379 1.789 5.367zm29.789-11.578h20c2.211 0 4-1.791 4-4s-1.789-4-4-4h-20c-2.211 0-4 1.791-4 4s1.789 4 4 4zm0 12h40c2.211 0 4-1.791 4-4s-1.789-4-4-4h-40c-2.211 0-4 1.791-4 4s1.789 4 4 4z" fill="url(#SVGID_1_)" data-original="url(#SVGID_1_)"></path></g></g></svg>