<svg id="Capa_1" enable-background="new 0 0 512 512" height="512" viewBox="0 0 512 512" width="512" xmlns="http://www.w3.org/2000/svg"><g><g><g><g><path d="m436.613 504.853v-65.017c0-25.042-15.987-47.288-39.721-55.274l-84.399-28.399c-7.911-2.662-13.24-10.078-13.24-18.425v-31.656l-79.63 1.529 2.933 32.134c0 8.347-12.351 17.992-20.262 20.654l-12.105-1.102-75.082 25.264c-23.734 7.986-39.721 30.232-39.721 55.274v65.161c0 3.867 3.136 7.002 7.003 7l347.078-.145c3.923.082 7.146-3.075 7.146-6.998z" fill="#d3dbfe"/></g></g><path d="m190.19 359.3c4.33 6.12 10.76 13.85 19.89 21.28 10.49 8.52 20.69 13.51 28.04 16.42l94.384-34.104-23.2.752c-7.911-2.662-17.081-15.555-17.081-23.903l-.306-33.663h-79.171v31.656c0 8.348-5.329 15.763-13.24 18.425l-9.316 3.135z" fill="#ffcebf"/><g><path d="m396.893 384.562-84.399-28.399c-7.911-2.662-13.24-10.077-13.24-18.425v-31.656h-86.507l56.507 30v31.656c0 8.348 5.329 15.763 13.24 18.425l84.399 28.399c23.734 7.986 39.721 30.232 39.721 55.274v42.025l22.855-.01c3.922.082 7.145-3.076 7.145-6.999v-65.017c-.001-25.041-15.987-47.287-39.721-55.273z" fill="#d3dbfe"/></g><path d="m269.254 367.738c0 6.102 2.856 11.697 7.478 15.31l55.773-20.152-20.011-6.733c-7.911-2.662-13.24-10.077-13.24-18.425v-31.656h-86.507l56.507 30z" fill="#ffb09e"/><g><path d="m357.829 239.184h-31.595v-54.367h31.595c15.013 0 27.184 12.17 27.184 27.184 0 15.012-12.171 27.183-27.184 27.183z" fill="#ffcebf"/><path d="m151.418 239.184h31.595v-54.367h-31.595c-15.013 0-27.184 12.17-27.184 27.184 0 15.012 12.171 27.183 27.184 27.183z" fill="#ffb09e"/></g><path d="m262.22 339.251-4.617.495c-15.561 0-31.859-.893-44.855-7.47-31.248-15.813-52.67-48.225-52.67-85.64v-88.401c28.312-4.562 62.097-7.936 100.199-7.666 34.52.245 65.359 3.43 91.646 7.666v88.401c0 37.415-21.421 69.826-52.668 85.639-12.997 6.577-21.474 6.976-37.035 6.976z" fill="#ffcebf"/><path d="m260.277 150.568c-6.558-.046-12.977.022-19.273.179 30.201.752 57.389 3.695 80.919 7.487v88.401c0 30.871-12.78 60.124-39.091 77.278-27.599 17.994-60.219 10.896-70.082 8.356 8.561 4.242 20.006 8.462 33.841 9.83 3.287.325 6.43.461 9.409.458 52.976 0 95.922-42.945 95.922-95.922 0-24.467 0-63.934 0-88.401-26.286-4.235-57.125-7.421-91.645-7.666z" fill="#ffb09e"/><g><path d="m377.428 73.948c-2.807-24.2-23.598-43.654-49.707-46.604-7.19-.813-14.141-.36-20.657 1.119-2.764.627-5.663-.265-7.504-2.273-10.474-11.43-26.096-18.69-43.56-18.69s-33.085 7.26-43.56 18.69c-1.841 2.008-4.74 2.9-7.504 2.273-5.383-1.222-11.062-1.743-16.927-1.43-29.02 1.552-52.403 23.437-53.716 50.306-.929 19.021 9.021 35.939 24.572 45.907 2.407 1.543 3.615 4.247 3.11 6.916l-5.632 40.101c-1.18 8.398 6.479 15.332 14.719 13.326 24.082-5.861 54.978-10.79 90.907-10.349 31.919.392 59.607 4.921 81.8 10.315 8.177 1.988 15.784-4.881 14.692-13.225-1.916-14.633-3.833-31.785-5.749-41.992-.476-2.535.587-5.116 2.789-6.688 15.068-10.754 24.176-28.307 21.927-47.702z" fill="#e7efff"/><g><path d="m355.5 121.649c15.069-10.753 24.177-28.307 21.928-47.702-2.807-24.2-23.598-43.654-49.707-46.604-7.19-.813-14.141-.36-20.657 1.119-2.764.627-5.663-.265-7.504-2.273-10.474-11.429-26.096-18.689-43.56-18.689-16.033 0-30.501 6.13-40.871 15.977 3.521-.629 7.151-.977 10.871-.977 17.464 0 33.086 7.26 43.56 18.689 1.841 2.009 4.74 2.9 7.504 2.273 6.516-1.479 13.467-1.932 20.657-1.119 26.109 2.95 46.9 22.404 49.707 46.604 2.25 19.395-6.859 36.949-21.928 47.702-2.202 1.571-3.265 4.152-2.789 6.688 1.69 9.002 3.38 23.403 5.07 36.716 5.599 1.099 10.942 2.276 15.988 3.502 8.177 1.988 15.784-4.881 14.692-13.225-1.916-14.633-3.833-31.785-5.749-41.993-.477-2.535.585-5.116 2.788-6.688z" fill="#d3dbfe"/></g><path d="m171.062 183.589c24.082-5.861 54.978-10.791 90.907-10.349 31.919.392 59.607 4.921 81.8 10.314 8.177 1.988 15.784-4.881 14.692-13.225-1.158-8.841-2.316-18.595-3.474-27.188-25.104-7.295-61.019-14.75-104.433-14.121-36.63.53-67.408 6.652-90.245 13.014l-3.965 28.229c-1.181 8.398 6.478 15.332 14.718 13.326z" fill="#d3dbfe"/><path d="m326.278 136.076c-.259.191-.515.386-.778.573-2.202 1.571-3.265 4.152-2.789 6.688 1.69 9.002 3.38 23.403 5.07 36.716 5.599 1.099 10.942 2.276 15.988 3.502 8.177 1.988 15.784-4.881 14.692-13.225-1.158-8.841-2.316-18.595-3.474-27.188-8.4-2.441-18.015-4.898-28.709-7.066z" fill="#b8cbff"/></g><path d="m209.934 511.943 219.534-.092c3.922.082 7.145-3.076 7.145-6.999v-65.017c0-25.042-15.987-47.288-39.721-55.274l-76.957-25.895-89.109 41.749c-12.749 5.973-20.893 18.782-20.893 32.861v78.667z" fill="#e7efff"/><path d="m396.893 384.562-76.957-25.895-46.105 21.601c2.242 2.66 5.206 4.731 8.663 5.895l84.399 28.399c23.734 7.986 39.721 30.232 39.721 55.274v42.025l22.855-.01c3.922.082 7.145-3.076 7.145-6.999v-65.017c-.001-25.041-15.987-47.287-39.721-55.273z" fill="#d3dbfe"/><path d="m287.572 279.865c-9.705-3.497-12.749-9.749-20.427-9.058-3.089.278-6.296 1.624-9.031 3.646-1.26.932-2.968.932-4.228 0-2.735-2.022-5.942-3.368-9.031-3.646-7.678-.691-10.722 5.561-20.427 9.058-5.384 1.94-13.21 3.173-24.198.321-1.699-.441-2.929 1.631-1.74 2.921 14.988 16.268 32.515 24.509 46.365 20.002 2.492-.811 5.971-2.397 9.063-4.687 1.234-.914 2.929-.914 4.164 0 3.092 2.291 6.571 3.876 9.063 4.687 13.85 4.508 31.377-3.734 46.365-20.002 1.189-1.291-.042-3.362-1.74-2.921-10.988 2.852-18.814 1.619-24.198-.321z" fill="#564e57"/></g><path d="m273.965 491.466c-4.142 0-7.5 3.358-7.5 7.5v5.534c0 4.142 3.358 7.5 7.5 7.5s7.5-3.358 7.5-7.5v-5.534c0-4.142-3.358-7.5-7.5-7.5zm-149.978-117.806-11.269 3.792c-26.813 9.024-44.828 34.096-44.828 62.388v64.66c0 4.142 3.358 7.5 7.5 7.5s7.5-3.358 7.5-7.5v-64.66c0-21.845 13.91-41.204 34.612-48.171l11.269-3.792c3.926-1.321 6.037-5.575 4.716-9.5-1.321-3.927-5.572-6.037-9.5-4.717zm18.9 78.34c-4.142 0-7.5 3.358-7.5 7.5v45c0 4.142 3.358 7.5 7.5 7.5s7.5-3.358 7.5-7.5v-45c0-4.142-3.358-7.5-7.5-7.5zm101.078-5.534c-4.142 0-7.5 3.358-7.5 7.5v5.534c0 4.142 3.358 7.5 7.5 7.5s7.5-3.358 7.5-7.5v-5.534c0-4.142-3.358-7.5-7.5-7.5zm125.148 5.534c-4.142 0-7.5 3.358-7.5 7.5v45c0 4.142 3.358 7.5 7.5 7.5s7.5-3.358 7.5-7.5v-45c0-4.142-3.358-7.5-7.5-7.5zm-125.148 39.466c-4.142 0-7.5 3.358-7.5 7.5v5.534c0 4.142 3.358 7.5 7.5 7.5s7.5-3.358 7.5-7.5v-5.534c0-4.142-3.358-7.5-7.5-7.5zm30-45c-4.142 0-7.5 3.358-7.5 7.5v5.534c0 4.142 3.358 7.5 7.5 7.5s7.5-3.358 7.5-7.5v-5.534c0-4.142-3.358-7.5-7.5-7.5zm-9.141-136.225c3.264 1.062 6.683 1.583 10.209 1.582 14.109-.001 29.899-8.336 43.994-23.633 2.809-3.049 3.262-7.491 1.126-11.053-2.133-3.558-6.26-5.249-10.267-4.209-7.605 1.974-14.074 1.936-19.771-.118-3.188-1.148-5.461-2.676-7.868-4.293-4.059-2.727-8.66-5.823-15.773-5.178-3.512.316-7.149 1.549-10.473 3.526-3.323-1.977-6.96-3.21-10.472-3.526-7.121-.643-11.716 2.45-15.774 5.178-2.407 1.618-4.68 3.145-7.868 4.293-5.698 2.054-12.166 2.092-19.773.117-4.008-1.04-8.132.652-10.265 4.21-2.135 3.562-1.683 8.004 1.127 11.053 17.616 19.121 37.88 27.365 54.202 22.051 1.506-.49 5.013-1.775 8.824-4.168 3.809 2.392 7.315 3.677 8.822 4.168zm-22.29-14.264c-7.209 2.349-16.489-.213-25.933-6.794 3.613-.321 7.076-1.075 10.369-2.262 4.932-1.777 8.379-4.094 11.15-5.956 3.385-2.275 4.424-2.834 6.063-2.688 1.634.147 3.545.952 5.244 2.207 3.932 2.907 9.214 2.907 13.145 0 1.699-1.256 3.611-2.061 5.246-2.208 1.644-.144 2.677.414 6.062 2.688 2.771 1.862 6.218 4.179 11.15 5.956 3.295 1.187 6.756 1.941 10.37 2.262-9.444 6.581-18.722 9.14-25.933 6.793-1.798-.585-4.56-1.833-6.921-3.583-1.958-1.45-4.251-2.174-6.545-2.174s-4.589.725-6.546 2.175c-2.361 1.751-5.123 2.999-6.921 3.584zm-36.367-73.727c-4.142 0-7.5 3.358-7.5 7.5v16.282c0 4.142 3.358 7.5 7.5 7.5s7.5-3.358 7.5-7.5v-16.282c0-4.142-3.357-7.5-7.5-7.5zm193.115 155.202-84.401-28.4c-5.212-1.761-8.513-6.841-8.131-12.328 31.415-17.768 52.669-51.487 52.67-90.082 8.667-.389 16.76-3.944 22.933-10.118 6.55-6.549 10.157-15.259 10.157-24.523 0-16.648-11.794-30.59-27.464-33.92.926-2.767 1.241-5.744.85-8.724-1.708-13.031-3.444-29.212-5.71-41.839 17.92-12.954 27.146-33.273 24.692-54.434-3.189-27.495-26.873-49.865-56.314-53.192-7.806-.883-15.598-.459-23.16 1.258-.161.035-.3-.019-.314-.026-12.303-13.425-30.195-21.124-49.09-21.124s-36.788 7.699-49.071 21.105c-.033.024-.172.08-.332.043-6.201-1.407-12.592-1.948-18.989-1.605-15.797.845-30.704 7.121-41.974 17.673-11.414 10.688-18.103 24.807-18.833 39.756-1.022 20.91 9.332 40.469 27.711 52.391-1.02 10.128-4.217 30.024-5.598 39.855-.389 2.773-.172 5.548.585 8.156-18.238 1-32.77 16.146-32.77 34.625 0 9.264 3.607 17.973 10.157 24.523 6.549 6.55 15.262 10.157 24.533 10.157h1.161c.015 38.578 21.265 72.281 52.669 90.043.247 5.412-2.829 10.584-8.132 12.329l-39.862 13.413c-3.926 1.321-6.037 5.574-4.716 9.5 1.336 3.972 5.662 6.014 9.5 4.716l25.401-8.547c5.273 6.73 11.271 12.864 17.91 18.268 5.026 4.083 10.377 7.7 15.985 10.861-11.667 8.089-18.903 21.557-18.903 36.015v71.223c0 4.142 3.358 7.5 7.5 7.5s7.5-3.358 7.5-7.5v-71.223c0-11.12 6.506-21.353 16.575-26.07 7.101-3.327 78.932-37.411 86.388-40.474l74.101 24.935c20.702 6.967 34.612 26.326 34.612 48.171v64.66c0 4.142 3.358 7.5 7.5 7.5s7.5-3.358 7.5-7.5v-64.66c.002-28.292-18.013-53.363-44.826-62.387zm-246.702-145.772h-1.16c-5.264 0-10.21-2.047-13.926-5.763-3.717-3.717-5.764-8.659-5.764-13.917 0-10.852 8.833-19.68 19.69-19.68h1.16zm224.93-19.68c0 5.258-2.047 10.2-5.763 13.917-3.339 3.338-7.669 5.315-12.327 5.686v-39.203c10.109.814 18.09 9.285 18.09 19.6zm-213.74-40.694 3.275-23.322c27.321-7.198 55.425-11.056 83.616-11.464 6.033-.087 12.149-.016 18.18.213 4.125.158 7.622-3.071 7.779-7.21s-3.071-7.622-7.21-7.779c-6.291-.239-12.673-.313-18.965-.222-27.322.396-54.564 3.895-81.144 10.41 1.208-5.787-1.289-11.732-6.387-14.999-13.992-8.968-21.891-23.632-21.128-39.227 1.118-22.876 21.598-41.845 46.625-43.183 5.014-.269 10.018.153 14.866 1.254 5.389 1.223 11.018-.509 14.694-4.52 9.467-10.332 23.328-16.257 38.029-16.257s28.562 5.925 38.031 16.257c3.675 4.011 9.308 5.744 14.694 4.52 5.917-1.343 12.024-1.674 18.154-.98 22.58 2.552 40.706 19.381 43.099 40.016 1.831 15.783-5.21 31.01-18.834 40.732-6.171 4.404-6.509 10.58-5.246 17.351-13.521-3.465-27.284-6.176-41.063-8.062-4.106-.562-7.886 2.31-8.448 6.414s2.31 7.886 6.414 8.448c15.264 2.089 30.509 5.231 45.397 9.332.433 3.349.865 6.796 1.292 10.207.511 4.083 1.022 8.166 1.534 12.071.279 2.13-.929 3.471-1.461 3.948-.653.585-2.045 1.494-4.022 1.016-27.321-6.641-55.407-10.183-83.479-10.527-31.194-.377-62.407 3.171-92.773 10.562-2.093.507-3.554-.553-4.084-1.034-.532-.483-1.735-1.832-1.435-3.965zm3.81 75.334v-55.238c.212.007.422.029.634.029 1.539 0 3.09-.182 4.621-.555 29.146-7.094 59.104-10.513 89.042-10.137 26.941.331 53.897 3.729 80.12 10.104.803.195 1.613.336 2.423.427v55.37c0 48.755-39.665 88.42-88.42 88.42s-88.42-39.665-88.42-88.42zm70.365 142.159c-8.307-3.601-16.08-8.309-23.131-14.036-4.391-3.574-8.467-7.513-12.186-11.771 8.746-3.224 15.072-10.656 16.995-19.542 11.322 4.268 23.58 6.611 36.377 6.611s25.055-2.343 36.377-6.611c1.322 6.107 4.723 11.525 9.562 15.368zm60.388-159.049v16.282c0 4.142 3.358 7.5 7.5 7.5s7.5-3.358 7.5-7.5v-16.282c0-4.142-3.358-7.5-7.5-7.5s-7.5 3.358-7.5 7.5zm-86.764-20.076c2.812.306 5.604.961 8.3 1.947 3.889 1.421 8.197-.58 9.619-4.47 1.422-3.891-.58-8.197-4.47-9.619-3.832-1.4-7.81-2.332-11.823-2.77-8.771-.957-17.86.464-26.285 4.11-3.801 1.645-5.549 6.061-3.904 9.862 1.665 3.847 6.136 5.516 9.862 3.904 6.044-2.615 12.51-3.641 18.701-2.964zm80.561 1.947c2.696-.985 5.488-1.641 8.301-1.947 6.189-.675 12.658.35 18.7 2.965 3.72 1.61 8.196-.056 9.862-3.904 1.646-3.801-.103-8.217-3.904-9.862-8.424-3.646-17.513-5.067-26.284-4.111-4.014.438-7.992 1.37-11.824 2.77-3.89 1.422-5.892 5.729-4.47 9.619s5.729 5.889 9.619 4.47z"/></g></svg>