<svg xmlns="http://www.w3.org/2000/svg" version="1.1" xmlns:xlink="http://www.w3.org/1999/xlink" xmlns:svgjs="http://svgjs.com/svgjs" width="512" height="512" x="0" y="0" viewBox="0 0 300 300" style="enable-background:new 0 0 512 512" xml:space="preserve" class=""><g><linearGradient id="SVGID_1_" gradientUnits="userSpaceOnUse" x1="49.083" x2="230.396" y1="263.682" y2="82.37"><stop stop-opacity="1" stop-color="#ff4069" offset="0"></stop><stop stop-opacity="1" stop-color="#ff4069" offset="1"></stop></linearGradient><g><path d="m269.418 158.939-28-46.074c-.725-1.193-2.021-1.922-3.418-1.922h-172c-2.209 0-4 1.791-4 4v16h-12c-2.209 0-4 1.791-4 4v16h-12c-2.209 0-4 1.791-4 4v32c0 2.209 1.791 4 4 4 4.412 0 8 3.588 8 8s-3.588 8-8 8c-2.209 0-4 1.791-4 4v32c0 2.209 1.791 4 4 4h188c1.336 0 2.584-.668 3.326-1.779l28-41.926c.863-1.293.9-2.969.092-4.299l-1.229-2.021 9.137-13.68c.863-1.293.9-2.969.092-4.299l-1.229-2.021 9.137-13.68c.863-1.294.901-2.969.092-4.299zm-49.557 80.004h-181.861v-24.506c6.893-1.781 12-8.053 12-15.494s-5.107-13.713-12-15.494v-24.506h181.75l25.508 41.973zm35.746-69.567-22.189-36.512c-.725-1.193-2.021-1.922-3.418-1.922h-160v-12h165.75l25.508 41.973zm-45.607 31.567c0 5.514 4.486 10 10 10s10-4.486 10-10-4.486-10-10-10-10 4.486-10 10zm10-2c1.104 0 2 .896 2 2s-.896 2-2 2-2-.896-2-2 .896-2 2-2zm-94.877-17.502-32 40c-.789.988-1.953 1.502-3.125 1.502-.877 0-1.76-.287-2.496-.877-1.727-1.379-2.006-3.896-.625-5.621l32-40c1.379-1.727 3.902-2.004 5.621-.625 1.727 1.378 2.006 3.896.625 5.621zm-23.123 3.502c0-5.514-4.486-10-10-10s-10 4.486-10 10 4.486 10 10 10 10-4.487 10-10zm-12 0c0-1.104.896-2 2-2s2 .896 2 2-.896 2-2 2-2-.897-2-2zm30 18c-5.514 0-10 4.486-10 10s4.486 10 10 10 10-4.486 10-10-4.486-10-10-10zm0 12c-1.104 0-2-.896-2-2s.896-2 2-2 2 .896 2 2-.896 2-2 2zm54-48v8c0 2.209-1.791 4-4 4s-4-1.791-4-4v-8c0-2.209 1.791-4 4-4s4 1.791 4 4zm0 60v4c0 2.209-1.791 4-4 4s-4-1.791-4-4v-4c0-2.209 1.791-4 4-4s4 1.791 4 4zm0-40v8c0 2.209-1.791 4-4 4s-4-1.791-4-4v-8c0-2.209 1.791-4 4-4s4 1.791 4 4zm0 20v8c0 2.209-1.791 4-4 4s-4-1.791-4-4v-8c0-2.209 1.791-4 4-4s4 1.791 4 4zm-11.948-149.609c0-2.362 1.915-4.276 4.276-4.276s4.276 1.915 4.276 4.276-1.915 4.276-4.276 4.276-4.276-1.914-4.276-4.276zm35.464 20.437 2.828-2.828-2.828-2.828c-1.562-1.562-1.562-4.094 0-5.656s4.094-1.562 5.656 0l2.828 2.827 2.828-2.828c1.562-1.562 4.094-1.562 5.656 0s1.562 4.094 0 5.656l-2.828 2.828 2.828 2.828c1.562 1.562 1.562 4.094 0 5.656-.781.781-1.805 1.172-2.828 1.172s-2.047-.391-2.828-1.172l-2.828-2.827-2.828 2.828c-.781.781-1.805 1.172-2.828 1.172s-2.047-.391-2.828-1.172c-1.563-1.563-1.563-4.094 0-5.656zm-96.926 6.351c6.803 0 12.338-5.535 12.338-12.34 0-6.803-5.535-12.338-12.338-12.338s-12.338 5.536-12.338 12.338c0 6.805 5.535 12.34 12.338 12.34zm0-16.678c2.393 0 4.338 1.945 4.338 4.338s-1.945 4.34-4.338 4.34-4.338-1.947-4.338-4.34 1.945-4.338 4.338-4.338z" fill="url(#SVGID_1_)" data-original="url(#SVGID_1_)"></path></g></g></svg>