<svg xmlns="http://www.w3.org/2000/svg" version="1.1" xmlns:xlink="http://www.w3.org/1999/xlink" xmlns:svgjs="http://svgjs.com/svgjs" width="512" height="512" x="0" y="0" viewBox="0 0 300 300" style="enable-background:new 0 0 512 512" xml:space="preserve" class=""><g><linearGradient id="SVGID_1_" gradientUnits="userSpaceOnUse" x1="59.782" x2="211.66" y1="212.293" y2="60.415"><stop stop-opacity="1" stop-color="#ff4069" offset="0"></stop><stop stop-opacity="1" stop-color="#ff4069" offset="1"></stop></linearGradient><g><path d="m246.171 211.364c-17.588 33.869-52.204 54.909-90.338 54.909-56.095 0-101.731-45.637-101.731-101.731 0-21.677 6.644-42.172 19.254-59.563l-9.989 3.33c-2.098.697-4.361-.435-5.06-2.53-.698-2.096.434-4.36 2.53-5.06l24-8c1.332-.443 2.797-.158 3.864.754 1.066.911 1.578 2.314 1.347 3.698l-4 24c-.326 1.957-2.021 3.344-3.941 3.344-.219 0-.44-.019-.663-.056-2.179-.363-3.651-2.424-3.288-4.603l1.704-10.221c-11.63 16.028-17.758 34.922-17.758 54.906 0 51.684 42.048 93.731 93.731 93.731 35.136 0 67.031-19.388 83.238-50.597 1.018-1.96 3.434-2.724 5.393-1.706 1.961 1.019 2.725 3.434 1.707 5.395zm-38.251-121.269c.527.359 1.05.724 1.57 1.095.705.503 1.516.744 2.32.744 1.249 0 2.479-.583 3.26-1.677 1.283-1.799.865-4.297-.933-5.579-.566-.404-1.136-.802-1.709-1.192-1.826-1.245-4.313-.775-5.559 1.051-1.245 1.824-.775 4.313 1.051 5.558zm34.763 44.008c.465 1.219.911 2.463 1.324 3.698.56 1.675 2.12 2.732 3.793 2.732.42 0 .849-.066 1.269-.208 2.095-.7 3.226-2.967 2.525-5.062-.449-1.342-.933-2.693-1.438-4.017-.789-2.062-3.099-3.097-5.165-2.309-2.063.79-3.096 3.102-2.308 5.166zm-18.508-29.908c.789.862 1.869 1.3 2.952 1.3.964 0 1.932-.347 2.699-1.049 1.63-1.491 1.742-4.021.251-5.651-.956-1.044-1.946-2.082-2.945-3.086-1.558-1.566-4.09-1.573-5.657-.015-1.566 1.559-1.572 4.091-.014 5.657.921.925 1.834 1.882 2.714 2.844zm23.542 48.861c.201 1.292.376 2.603.522 3.896.23 2.043 1.961 3.552 3.97 3.552.149 0 .301-.008.453-.025 2.195-.247 3.774-2.228 3.526-4.423-.158-1.402-.349-2.825-.566-4.228-.339-2.183-2.385-3.686-4.567-3.338-2.183.338-3.677 2.382-3.338 4.566zm-11.855-33.091c.747 1.263 2.079 1.965 3.447 1.965.692 0 1.393-.18 2.032-.558 1.902-1.124 2.532-3.577 1.408-5.479-.721-1.22-1.477-2.439-2.247-3.625-1.203-1.853-3.679-2.381-5.533-1.178-1.853 1.203-2.38 3.68-1.178 5.533.71 1.093 1.406 2.217 2.071 3.342zm17.042 48.909c-2.212-.098-4.092 1.57-4.213 3.775-.071 1.307-.171 2.625-.297 3.919-.213 2.198 1.396 4.154 3.595 4.367.131.013.262.019.391.019 2.035 0 3.776-1.547 3.977-3.614.136-1.404.245-2.835.322-4.253.121-2.206-1.569-4.092-3.775-4.213zm-2.418 20.346c-2.133-.578-4.329.686-4.905 2.818-.167.617-.339 1.232-.518 1.846-.62 2.12.597 4.342 2.717 4.961.375.11.752.162 1.125.162 1.731 0 3.327-1.133 3.837-2.879.195-.666.382-1.334.563-2.004.576-2.133-.686-4.328-2.819-4.904zm-205.769-154.091c-1.869 1.87-1.869 4.901 0 6.77 1.87 1.869 4.901 1.869 6.77 0 1.869-1.87 1.869-4.901 0-6.77-1.87-1.87-4.901-1.87-6.77 0zm0 20c-1.869 1.87-1.869 4.901 0 6.77 1.87 1.869 4.901 1.869 6.77 0 1.869-1.87 1.869-4.901 0-6.77-1.87-1.87-4.901-1.87-6.77 0zm0 20c-1.869 1.87-1.869 4.901 0 6.77 1.87 1.869 4.901 1.869 6.77 0 1.869-1.87 1.869-4.901 0-6.77-1.87-1.87-4.901-1.87-6.77 0zm99.322 102.501.263-1.05-1.745-.7c-6.207-2.487-10.218-8.415-10.218-15.103v-17.193c0-12.247 9.963-22.21 22.21-22.21s22.21 9.963 22.21 22.21v17.182c0 6.696-4.019 12.628-10.238 15.11l-1.729.69.266 1.063c.744 2.975 3.183 5.197 6.213 5.664l11.789 1.813c9.011 1.386 15.552 9.01 15.552 18.127v14.405c0 1.829-1.241 3.425-3.013 3.876-13.911 3.541-27.775 5.312-41.489 5.312-13.73 0-27.31-1.773-40.652-5.322-1.752-.466-2.972-2.052-2.972-3.865v-14.405c0-9.117 6.541-16.741 15.552-18.127l11.789-1.813c3.03-.467 5.469-2.69 6.212-5.664zm13.259 1.939-.065-.26c-.896.173-1.803.261-2.71.261-.89 0-1.78-.085-2.659-.252l-.063.251c-1.527 6.108-6.534 10.674-12.757 11.631l-11.789 1.813c-5.081.782-8.769 5.08-8.769 10.221v11.298c23.45 5.733 47.683 5.724 72.125-.031v-11.267c0-5.141-3.688-9.438-8.769-10.221l-11.789-1.813c-6.221-.957-11.229-5.522-12.755-11.631zm-11.766-11.115 4.273 1.713 1.294.519 6.416.172 6.039-2.412c3.162-1.262 5.204-4.276 5.204-7.681v-17.182c0-7.835-6.375-14.21-14.21-14.21s-14.21 6.375-14.21 14.21v17.193c.001 3.401 2.039 6.413 5.194 7.678zm37.169-31.942c0 2.209 1.791 4 4 4 5.412 0 9.814 4.402 9.814 9.813v13.033c0 2.185-1.311 4.12-3.34 4.93l-5.065 2.023c-.923.368-1.939.367-2.862-.002-2.051-.821-4.379.175-5.201 2.225-.822 2.051.174 4.38 2.225 5.201 1.421.569 2.914.854 4.408.854.464 0 .927-.037 1.389-.093 1.472 4.695 5.554 8.162 10.577 8.907l9.287 1.375c3.574.529 6.167 3.388 6.167 6.796v10.928c0 2.209 1.791 4 4 4s4-1.791 4-4v-10.928c0-7.407-5.465-13.593-12.995-14.71l-9.288-1.375c-2.041-.303-3.675-1.704-4.176-3.573l.499-.199c5.086-2.031 8.373-6.882 8.373-12.359v-13.033c0-9.822-7.991-17.813-17.814-17.813-2.207 0-3.998 1.791-3.998 4zm-96.6 69.991c0 2.209 1.791 4 4 4s4-1.791 4-4v-10.928c0-3.408 2.594-6.267 6.167-6.796l9.289-1.375c5.022-.745 9.104-4.212 10.576-8.907.462.055.925.093 1.389.093 1.494 0 2.987-.285 4.408-.854 2.051-.821 3.047-3.15 2.225-5.201-.821-2.05-3.149-3.045-5.201-2.225-.922.369-1.938.369-2.861.002l-5.066-2.023c-2.029-.81-3.34-2.745-3.34-4.93v-13.033c0-5.411 4.402-9.813 9.814-9.813 2.209 0 4-1.791 4-4s-1.791-4-4-4c-9.823 0-17.814 7.991-17.814 17.813v13.033c0 5.478 3.287 10.328 8.373 12.359l.499.199c-.501 1.869-2.135 3.271-4.176 3.573l-9.289 1.375c-7.529 1.117-12.994 7.303-12.994 14.71v10.928zm56.188-149.989h-8.188c-2.209 0-4 1.791-4 4s1.791 4 4 4h8.188c2.209 0 4-1.791 4-4s-1.791-4-4-4zm55.812-8v48c0 2.209-1.791 4-4 4h-76c-2.209 0-4-1.791-4-4v-48c0-2.209 1.791-4 4-4h76c2.209 0 4 1.791 4 4zm-51.812 36c0-2.209-1.791-4-4-4h-8.188c-2.209 0-4 1.791-4 4s1.791 4 4 4h8.188c2.209 0 4-1.791 4-4zm43.812-32h-68v16h68z" fill="url(#SVGID_1_)" data-original="url(#SVGID_1_)"></path></g></g></svg>