<svg xmlns="http://www.w3.org/2000/svg" version="1.1" xmlns:xlink="http://www.w3.org/1999/xlink" xmlns:svgjs="http://svgjs.com/svgjs" width="512" height="512" x="0" y="0" viewBox="0 0 300 300" style="enable-background:new 0 0 512 512" xml:space="preserve" class=""><g><linearGradient id="SVGID_1_" gradientUnits="userSpaceOnUse" x1="61.973" x2="236.351" y1="248.15" y2="73.771"><stop stop-opacity="1" stop-color="#ff4069" offset="0"></stop><stop stop-opacity="1" stop-color="#ff4069" offset="1"></stop></linearGradient><g><path d="m217.516 83.217 2.828-2.828-2.828-2.828c-1.562-1.562-1.562-4.094 0-5.656s4.094-1.562 5.656 0l2.828 2.828 2.828-2.828c1.562-1.562 4.094-1.562 5.656 0s1.562 4.094 0 5.656l-2.828 2.828 2.828 2.828c1.562 1.562 1.562 4.094 0 5.656-.781.781-1.805 1.172-2.828 1.172s-2.047-.391-2.828-1.172l-2.828-2.828-2.828 2.828c-.781.781-1.805 1.172-2.828 1.172s-2.047-.391-2.828-1.172c-1.563-1.562-1.563-4.094 0-5.656zm-159.516 127.172c0 7.719-6.281 14-14 14s-14-6.281-14-14 6.281-14 14-14 14 6.281 14 14zm-8 0c0-3.309-2.691-6-6-6s-6 2.691-6 6 2.691 6 6 6 6-2.692 6-6zm34.189 19.445c-2.501-.005-4.533 2.02-4.538 4.521s2.02 4.533 4.521 4.538c2.502.005 4.533-2.02 4.538-4.521.005-2.502-2.019-4.534-4.521-4.538zm185.811-83.582v96.273c0 7.645-6.221 13.863-13.865 13.863h-89.135l-13.801 18.398c-.77 1.027-1.965 1.602-3.199 1.602-.422 0-.85-.066-1.266-.207-1.633-.543-2.734-2.07-2.734-3.793v-16h-10.135c-7.645 0-13.865-6.219-13.865-13.863v-75.665l-11.93 4.235-6.848 21.957c-.512 1.645-2.02 2.773-3.74 2.809-.027 0-.053 0-.078 0-1.691 0-3.203-1.062-3.77-2.66l-5.354-15.078-9.551 3.391c-7.197 2.562-15.143-1.223-17.705-8.426l-32.212-90.723c-1.238-3.492-1.045-7.254.547-10.598s4.391-5.867 7.883-7.105l113.336-40.246c7.201-2.57 15.145 1.223 17.703 8.426l32.213 90.723c1.027 2.888 1.015 5.953.096 8.824h53.544c7.645 0 13.866 6.219 13.866 13.863zm-78.607-12.519c1.475-.523 2.66-1.594 3.332-3.008.674-1.414.756-3.004.23-4.48l-32.213-90.723c-1.08-3.047-4.426-4.652-7.488-3.566l-113.338 40.245c-1.477.523-2.66 1.59-3.334 3.004-.672 1.414-.754 3.008-.23 4.48l32.213 90.723c1.08 3.051 4.438 4.641 7.488 3.566l13.322-4.73c.434-.152.887-.23 1.338-.23.59 0 1.178.129 1.719.387.959.457 1.695 1.273 2.051 2.273l2.676 7.539 3.871-12.41c.375-1.203 1.293-2.156 2.48-2.578zm70.607 12.519c0-3.234-2.631-5.863-5.865-5.863h-60.135c-.012 0-.023-.007-.035-.007-.613.327-1.228.652-1.895.89l-64.07 22.748v78.506c0 3.234 2.631 5.863 5.865 5.863h14.135c2.209 0 4 1.789 4 4v8l7.801-10.398c.754-1.008 1.939-1.602 3.199-1.602h91.135c3.234 0 5.865-2.629 5.865-5.863zm-16 43.406v32.805c0 7.68-6.246 13.926-13.924 13.926h-30.076c-.621 0-1.234-.145-1.789-.422l-15.154-7.578h-7.057c0 2.211-1.791 4-4 4h-24c-2.209 0-4-1.789-4-4v-48c0-2.211 1.791-4 4-4h24c2.093 0 3.76 1.624 3.934 3.673 8.69-1.411 16.194-7.405 19.343-15.806l4.977-13.27c.586-1.562 2.078-2.598 3.746-2.598h8c2.209 0 4 1.789 4 4v12c0 .262-.025.527-.078.785l-3.043 15.215h21.85c5.113.001 9.271 4.161 9.271 9.27zm-8.349 34.731h-3.651c-2.209 0-4-1.789-4-4s1.791-4 4-4h4v-4h-4c-2.209 0-4-1.789-4-4s1.791-4 4-4h4v-4h-4c-2.209 0-4-1.789-4-4s1.791-4 4-4h4v-2.73c0-.699-.57-1.27-1.271-1.27h-26.729c-1.199 0-2.334-.539-3.094-1.465s-1.064-2.145-.828-3.32l3.922-19.61v-7.605h-1.229l-4.002 10.676c-4.308 11.488-14.781 19.518-26.77 21.012v32.312h8c.621 0 1.234.145 1.789.422l15.154 7.578h29.133c2.589 0 4.772-1.682 5.576-4zm-68.528-135.039c1.709 4.816-.816 10.129-5.631 11.844l-20.592 7.309 7.957 13.32c.135.227.248.465.336.711l4.016 11.309c.738 2.082-.35 4.367-2.43 5.109l-7.539 2.68c-.439.156-.891.23-1.34.23-1.158 0-2.285-.504-3.059-1.422l-9.133-10.844c-5.784-6.867-14.86-9.999-23.515-8.422.519 1.988-.507 4.079-2.479 4.778l-22.617 8.031c-.441.156-.895.23-1.338.23-1.646 0-3.188-1.023-3.77-2.66l-16.061-45.235c-.738-2.082.35-4.371 2.432-5.109l22.617-8.031c2.08-.742 4.367.352 5.107 2.43v.001l6.648-2.36 11.748-12.211c.43-.445.959-.789 1.545-.996l28.342-10.066c7.232-2.562 15.211 1.23 17.779 8.461zm-84.932 35.754 15.076-5.351c-.001-.003 0-.006-.001-.009l-13.383-37.687-15.078 5.352zm77.393-33.079-.912-2.567c-.001 0-.001.001-.002.001l-3.77 1.336c-.441.156-.893.23-1.336.23-1.646 0-3.189-1.023-3.77-2.664-.738-2.082.352-4.367 2.434-5.105l3.767-1.335-1.339-3.771c-.001 0-.001.001-.002.001l-3.77 1.336c-.441.156-.893.23-1.336.23-1.646 0-3.189-1.023-3.77-2.664-.738-2.082.352-4.367 2.434-5.105l3.767-1.335-1.339-3.77-3.768 1.339c-.443.156-.895.23-1.34.23-1.645 0-3.186-1.023-3.77-2.66-.74-2.082.348-4.367 2.43-5.109l3.442-1.224c-1.533-1.915-4.152-2.766-6.592-1.905l-27.451 9.75-11.748 12.211c-.432.445-.959.789-1.545.996l-7.538 2.677 10.813 30.449c11.8-2.606 24.352 1.46 32.254 10.847l7.346 8.719 1.158-.41-2.545-7.168-10.258-17.168c-.615-1.027-.736-2.277-.33-3.406s1.297-2.012 2.426-2.414l25.188-8.941c.659-.236 1.006-.966.772-1.631z" fill="url(#SVGID_1_)" data-original="url(#SVGID_1_)"></path></g></g></svg>