<svg xmlns="http://www.w3.org/2000/svg" version="1.1" xmlns:xlink="http://www.w3.org/1999/xlink" xmlns:svgjs="http://svgjs.com/svgjs" width="512" height="512" x="0" y="0" viewBox="0 0 300 300" style="enable-background:new 0 0 512 512" xml:space="preserve" class=""><g><linearGradient id="SVGID_1_" gradientUnits="userSpaceOnUse" x1="63.046" x2="256.704" y1="245.411" y2="51.753"><stop stop-opacity="1" stop-color="#ff4069" offset="0"></stop><stop stop-opacity="1" stop-color="#ff4069" offset="1"></stop></linearGradient><g><path d="m271.565 175.02c1.668-7.738 2.516-15.652 2.516-23.525 0-18.525-4.607-36.587-13.344-52.763.006-.087.051-.161.051-.25v-40.987c0-2.209-1.789-4-4-4h-41.404c-9.235-4.983-19.16-8.693-29.49-10.875-7.59-1.604-15.367-2.418-23.105-2.418-18.705 0-36.961 4.676-53.265 13.585-.45-.176-.933-.292-1.446-.292h-18.604l-1.601-2.495-7.668-11.943c-.574-.895-1.48-1.523-2.516-1.748-1.035-.236-2.121-.033-3.016.545-24.764 15.93-42.503 41.486-48.663 70.117-.465 2.158.906 4.285 3.066 4.752l13.871 3 21.84 4.724v5.759l-6.023-1.303c-1.027-.225-2.117-.027-3.012.549-.891.574-1.52 1.48-1.742 2.518-1.668 7.738-2.516 15.652-2.516 23.525 0 18.487 4.591 36.512 13.293 52.663v41.337c0 2.209 1.789 4 4 4h41.404c9.235 4.983 19.16 8.693 29.49 10.875 7.59 1.604 15.367 2.418 23.105 2.418 18.487 0 36.526-4.586 52.685-13.293h41.315c2.211 0 4-1.791 4-4v-39.021c0-.6-.151-1.156-.387-1.666 5.11-9.31 8.916-19.338 11.164-29.785.001-.002.002-.002.002-.003zm-7.051-5.616-6.059-1.31c.949-5.488 1.43-11.056 1.43-16.599 0-17.422-4.645-34.385-13.461-49.307l.11-.071 5.094-3.293c9.468 15.93 14.453 34.054 14.453 52.671-.001 5.98-.528 11.986-1.567 17.909zm-127.072 82.233c-23.738-6.013-44.948-20.627-59.143-40.757l2.012-1.302 3.191-2.063c13.293 18.754 33.078 32.386 55.226 38.058zm-62.479-115.045 77.56 16.776-21.872 14.14c-1.597-2.389-3.953-4.237-6.809-5.176l-6.641-2.188c-2.094-.691-4.359.449-5.051 2.547-.691 2.1.449 4.359 2.551 5.051l6.641 2.188c1.076.354 1.942 1.056 2.565 1.938l-37.989 24.559c-7.981-13.623-12.229-29.056-12.229-44.931.001-4.966.439-9.961 1.274-14.904zm68.77-22.188-9.183-14.306c1.277-.753 2.722-1.152 4.237-1.152 4.715 0 8.551 3.836 8.551 8.549 0 2.779-1.398 5.339-3.605 6.909zm-4.946-23.458c-3.038 0-5.944.936-8.504 2.505l-12.175-18.968c13.563-7.888 28.908-12.088 44.679-12.088 4.865 0 9.747.417 14.565 1.212l-16.456 77.536-12.849-20.018c4.448-3.022 7.291-8.097 7.291-13.631 0-9.124-7.426-16.548-16.551-16.548zm49.346-39.593c23.738 6.013 44.948 20.627 59.143 40.757l-5.203 3.363c-13.293-18.752-33.074-32.385-55.226-38.057zm62.48 115.045-77.561-16.776 29.193-18.873c.92.836 1.786 1.738 2.542 2.745l4.801 6.4c.785 1.047 1.984 1.6 3.203 1.6.836 0 1.676-.26 2.395-.801 1.77-1.324 2.129-3.832.801-5.6l-4.801-6.4c-.634-.846-1.318-1.646-2.038-2.407l30.508-19.723c7.981 13.623 12.229 29.056 12.229 44.931 0 4.977-.438 9.971-1.272 14.904zm-110.199 71.234c-20.08-5.225-37.962-17.549-50.096-34.523l36.586-23.653c1.598 2.402 3.961 4.26 6.828 5.203l6.641 2.188c.414.137.836.203 1.25.203 1.68 0 3.246-1.068 3.801-2.75.691-2.1-.449-4.359-2.551-5.051l-6.641-2.188c-1.087-.358-1.958-1.07-2.583-1.966l23.227-15.016zm44.747-172.275c20.079 5.225 37.962 17.549 50.095 34.523l-32.834 21.227c-4.131-2.307-8.813-3.613-13.635-3.613-2.211 0-4 1.791-4 4s1.789 4 4 4c1.902 0 3.768.307 5.563.831l-25.65 16.584zm-20.481 96.492 13.839 21.56c-1.37.601-2.674 1.371-3.775 2.472l-4.785 4.785c-1.562 1.562-1.562 4.094 0 5.656.781.781 1.805 1.172 2.828 1.172s2.047-.391 2.828-1.172l4.785-4.783c.706-.707 1.615-1.101 2.575-1.187l24.49 38.154c-13.561 7.887-28.909 12.085-44.679 12.085-4.87 0-9.751-.415-14.565-1.209zm49.484 62.281-22.147-34.503c1.085-.483 2.126-1.068 3.04-1.862l8.352-7.248c1.668-1.449 1.848-3.975.398-5.643-1.445-1.672-3.973-1.846-5.641-.4l-8.355 7.25c-.637.552-1.43.862-2.25.96l-16.203-25.244 77.476 16.758c-5.298 20.043-17.674 37.867-34.67 49.932zm-33.86-174.435-1.286 6.063c-22.484-3.799-45.754.496-65.266 11.941l-3.348-5.215c20.886-12.319 45.827-16.916 69.9-12.789zm-96.894 9.165 9.7 15.111c-4.322 3.067-7.018 8.045-7.018 13.524 0 9.205 7.488 16.693 16.695 16.693 2.961 0 5.752-.847 8.246-2.294l15.184 23.655-77.476-16.758c5.298-20.043 17.674-37.867 34.669-49.931zm14.022 21.844 9.315 14.512c-1.214.636-2.558.972-3.959.972-4.793 0-8.695-3.9-8.695-8.693-.001-2.705 1.268-5.184 3.339-6.791zm-21.754-33.891 3.348 5.217c-18.773 13.215-32.465 32.936-38.219 55.045l-6.059-1.311c6.102-23.699 20.778-44.838 40.93-58.951zm58.266 88.592c.281.061.562.09.844.09 1.293 0 2.527-.629 3.285-1.721.922-1.328.953-3.08.082-4.439l-22.718-35.393s0-.001-.001-.002l-3.157-4.918-17.67-27.527h6.295c.044.65.19 1.296.566 1.883l7.668 11.943 20.56 32.031 9.182 14.307c.002.002.004.004.006.007l15.33 23.883-81.429-17.613v-5.759zm-72.883-1.821 6.059 1.311c-.949 5.502-1.43 11.068-1.43 16.6 0 17.422 4.645 34.385 13.461 49.307l-.11.071-5.094 3.293c-9.468-15.93-14.453-34.054-14.453-52.671 0-5.981.528-11.987 1.567-17.911zm84.21 119.71 1.286-6.063c22.457 3.787 45.749-.494 65.264-11.941l3.348 5.215c-.646.381-1.328.687-1.981 1.052-1.127.091-2.09.635-2.759 1.465-19.872 10.346-42.865 14.092-65.158 10.272zm76.627-17.118-2.633-4.1-.716-1.116c18.773-13.215 32.465-32.936 38.219-55.045l6.059 1.311c-6.102 23.696-20.777 44.835-40.929 58.95zm-19.111-126.681c7.719 0 14-6.281 14-14s-6.281-14-14-14-14 6.281-14 14 6.282 14 14 14zm0-20c3.309 0 6 2.691 6 6s-2.691 6-6 6-6-2.691-6-6 2.692-6 6-6zm30 102c0-7.719-6.281-14-14-14s-14 6.281-14 14 6.281 14 14 14 14-6.282 14-14zm-14 6c-3.309 0-6-2.691-6-6s2.691-6 6-6 6 2.691 6 6-2.691 6-6 6zm-92-8c-7.719 0-14 6.281-14 14s6.281 14 14 14 14-6.281 14-14-6.281-14-14-14zm0 20c-3.309 0-6-2.691-6-6s2.691-6 6-6 6 2.691 6 6-2.691 6-6 6zm100.079-81.057c-1.051-.158-2.176.115-3.043.781-.863.664-1.422 1.652-1.539 2.738-.047.416-1.051 10.305 4.574 17.627 5.621 7.322 15.434 8.904 15.852 8.967.199.031.402.047.605.047.875 0 1.734-.287 2.438-.828.863-.664 1.422-1.652 1.539-2.738.047-.416 1.051-10.305-4.574-17.629-5.622-7.321-15.434-8.903-15.852-8.965zm6.336 16.273c-1.605-2.088-2.371-4.633-2.727-6.832 2.035.912 4.297 2.311 5.898 4.396v.002c1.605 2.088 2.371 4.633 2.727 6.832-2.035-.911-4.297-2.31-5.898-4.398zm-69.887-50.113c.875 0 1.734-.287 2.438-.828.863-.664 1.422-1.652 1.539-2.738.047-.416 1.051-10.305-4.574-17.629-5.621-7.32-15.434-8.902-15.852-8.965-1.051-.162-2.176.115-3.043.781-.863.664-1.422 1.652-1.539 2.738-.047.416-1.051 10.305 4.574 17.627 5.621 7.322 15.434 8.904 15.852 8.967.199.031.402.047.605.047zm-10.113-13.887c-1.605-2.088-2.371-4.633-2.727-6.832 2.035.912 4.297 2.311 5.898 4.396v.002c1.605 2.088 2.371 4.633 2.727 6.832-2.035-.911-4.297-2.31-5.898-4.398zm-89.379 4.508c-.863.664-1.422 1.652-1.539 2.738-.047.416-1.051 10.305 4.574 17.627 5.621 7.322 15.434 8.904 15.852 8.967.199.031.402.047.605.047.875 0 1.734-.287 2.438-.828.863-.664 1.422-1.652 1.539-2.738.047-.416 1.051-10.305-4.574-17.629-5.621-7.32-15.434-8.902-15.852-8.965-1.051-.164-2.176.115-3.043.781zm12.55 13.057v.002c1.605 2.088 2.371 4.633 2.727 6.832-2.035-.912-4.297-2.311-5.898-4.398-1.605-2.088-2.371-4.633-2.727-6.832 2.035.911 4.297 2.31 5.898 4.396zm13.036 73.65c4.395 2.803 9.422 3.43 13.039 3.43 2.793 0 4.742-.373 4.922-.408 1.07-.213 2.008-.854 2.594-1.773.59-.92.773-2.039.516-3.1-.102-.408-2.531-10.047-10.312-15.012-7.785-4.965-17.547-3.102-17.961-3.021-1.07.213-2.008.854-2.594 1.773-.59.92-.773 2.039-.516 3.1.101.408 2.53 10.046 10.312 15.011zm6.453-10.117c2.223 1.416 3.812 3.547 4.895 5.492-2.223-.164-4.828-.705-7.043-2.121-2.223-1.416-3.812-3.547-4.895-5.492 2.222.164 4.828.705 7.043 2.121zm77.547 66.117c4.395 2.803 9.422 3.43 13.039 3.43 2.793 0 4.742-.373 4.922-.408 1.07-.213 2.008-.854 2.594-1.773.59-.92.773-2.039.516-3.1-.102-.408-2.531-10.047-10.312-15.012-7.785-4.963-17.547-3.1-17.961-3.021-1.07.213-2.008.854-2.594 1.773-.59.92-.773 2.039-.516 3.1.101.408 2.53 10.046 10.312 15.011zm6.453-10.117c2.223 1.416 3.812 3.547 4.895 5.492-2.223-.164-4.828-.705-7.043-2.121-2.223-1.416-3.812-3.547-4.895-5.492 2.222.164 4.828.705 7.043 2.121z" fill="url(#SVGID_1_)" data-original="url(#SVGID_1_)"></path></g></g></svg>