<?xml version="1.0" encoding="UTF-8"?>
<svg xmlns="http://www.w3.org/2000/svg" xmlns:xlink="http://www.w3.org/1999/xlink" version="1.1" id="Capa_1" x="0px" y="0px" viewBox="0 0 512 512" style="enable-background:new 0 0 512 512;" xml:space="preserve" width="512" height="512">
<g>
	<g>
		<g>
			<path style="fill:#60B7FF;" d="M159.834,379.729h-77.04v-89.745c0-3.866,3.134-7,7-7h63.04c3.866,0,7,3.134,7,7V379.729z"/>
			<path style="fill:#26A6FE;" d="M152.834,282.984h-30c3.866,0,7,3.134,7,7v89.744h30v-89.744&#10;&#9;&#9;&#9;&#9;C159.834,286.118,156.7,282.984,152.834,282.984z"/>
			<path style="fill:#60B7FF;" d="M294.834,379.729h-77.04V207.008c0-3.35,2.374-6.231,5.662-6.871l63.04-12.274&#10;&#9;&#9;&#9;&#9;c4.322-0.841,8.338,2.468,8.338,6.871V379.729z"/>
			<path style="fill:#26A6FE;" d="M286.496,187.863l-22.152,4.313c0.31,0.79,0.49,1.648,0.49,2.558v184.995h30V194.734&#10;&#9;&#9;&#9;&#9;C294.834,190.331,290.818,187.021,286.496,187.863z"/>
			<path style="fill:#60B7FF;" d="M429.834,379.729h-77.04V128.03c0-3.866,3.134-7,7-7h63.04c3.866,0,7,3.134,7,7V379.729z"/>
			<path style="fill:#26A6FE;" d="M422.834,121.03h-30c3.866,0,7,3.134,7,7v251.698h30V128.03&#10;&#9;&#9;&#9;&#9;C429.834,124.164,426.7,121.03,422.834,121.03z"/>
		</g>
		<g>
			<path style="fill:#C9F6B0;" d="M446.467,504.5H65.533c-16.569,0-30-13.431-30-30v-98.386c0-16.569,13.431-30,30-30h380.935&#10;&#9;&#9;&#9;&#9;c16.569,0,30,13.431,30,30V474.5C476.467,491.069,463.036,504.5,446.467,504.5z"/>
			<path style="fill:#9BE69D;" d="M446.467,346.114h-30c16.569,0,30,13.431,30,30V474.5c0,16.568-13.431,30-30,30h30&#10;&#9;&#9;&#9;&#9;c16.569,0,30-13.432,30-30v-98.386C476.467,359.545,463.036,346.114,446.467,346.114z"/>
		</g>
		<g>
			<path style="fill:#C9F6B0;" d="M232.851,191.253l-55.472-50.263c-2.81-2.546-6.172-4.462-9.862-5.336&#10;&#9;&#9;&#9;&#9;c-7.955-1.885-16.038,0.773-21.296,6.576l-64.398,71.073c-8.099,8.938-7.418,22.749,1.52,30.848l0,0&#10;&#9;&#9;&#9;&#9;c8.938,8.099,22.749,7.418,30.848-1.52l47.049-51.925c1.483-1.637,4.013-1.762,5.65-0.278l55.782,50.544&#10;&#9;&#9;&#9;&#9;c8.938,8.098,22.749,7.417,30.848-1.52L399.292,78.567c2.16-2.383,5.843-2.565,8.226-0.405l18.552,16.809&#10;&#9;&#9;&#9;&#9;c3.742,3.391,9.732,0.737,9.734-4.314l0.029-77.331c0.001-3.444-2.971-6.137-6.398-5.797l-76.954,7.631&#10;&#9;&#9;&#9;&#9;c-5.026,0.498-7.078,6.72-3.336,10.111l17.374,15.743c2.383,2.16,2.565,5.843,0.405,8.226L238.501,190.975&#10;&#9;&#9;&#9;&#9;C237.017,192.612,234.488,192.737,232.851,191.253z"/>
		</g>
		<g>
			<path style="fill:#C9F6B0;" d="M232.851,191.253l-55.472-50.263c-2.81-2.546-6.172-4.462-9.862-5.336&#10;&#9;&#9;&#9;&#9;c-7.955-1.885-16.038,0.773-21.296,6.576l-64.398,71.073c-8.099,8.938-7.418,22.749,1.52,30.848l0,0&#10;&#9;&#9;&#9;&#9;c8.938,8.099,22.749,7.418,30.848-1.52l47.049-51.925c1.483-1.637,4.013-1.762,5.65-0.278l55.782,50.544&#10;&#9;&#9;&#9;&#9;c8.938,8.098,22.749,7.417,30.848-1.52L399.292,78.567c2.16-2.383,5.843-2.565,8.226-0.405l18.552,16.809&#10;&#9;&#9;&#9;&#9;c3.742,3.391,9.732,0.737,9.734-4.314l0.029-77.331c0.001-3.444-2.971-6.137-6.398-5.797l-76.954,7.631&#10;&#9;&#9;&#9;&#9;c-5.026,0.498-7.078,6.72-3.336,10.111l17.374,15.743c2.383,2.16,2.565,5.843,0.405,8.226L238.501,190.975&#10;&#9;&#9;&#9;&#9;C237.017,192.612,234.488,192.737,232.851,191.253z"/>
		</g>
		<g>
			<path style="fill:#C9F6B0;" d="M232.851,191.253l-55.472-50.263c-2.81-2.546-6.172-4.462-9.862-5.336&#10;&#9;&#9;&#9;&#9;c-7.955-1.885-16.038,0.773-21.296,6.576l-64.398,71.073c-8.099,8.938-7.418,22.749,1.52,30.848l0,0&#10;&#9;&#9;&#9;&#9;c8.938,8.099,22.749,7.418,30.848-1.52l47.049-51.925c1.483-1.637,4.013-1.762,5.65-0.278l55.782,50.544&#10;&#9;&#9;&#9;&#9;c8.938,8.098,22.749,7.417,30.848-1.52L399.292,78.567c2.16-2.383,5.843-2.565,8.226-0.405l18.552,16.809&#10;&#9;&#9;&#9;&#9;c3.742,3.391,9.732,0.737,9.734-4.314l0.029-77.331c0.001-3.444-2.971-6.137-6.398-5.797l-76.954,7.631&#10;&#9;&#9;&#9;&#9;c-5.026,0.498-7.078,6.72-3.336,10.111l17.374,15.743c2.383,2.16,2.565,5.843,0.405,8.226L238.501,190.975&#10;&#9;&#9;&#9;&#9;C237.017,192.612,234.488,192.737,232.851,191.253z"/>
		</g>
		<g>
			<path style="fill:#9BE69D;" d="M232.851,191.253l-55.472-50.263c-2.81-2.546-6.172-4.462-9.862-5.336&#10;&#9;&#9;&#9;&#9;c-7.955-1.885-16.038,0.773-21.296,6.576l-64.398,71.073c-8.099,8.938-7.418,22.749,1.52,30.848l0,0&#10;&#9;&#9;&#9;&#9;c8.938,8.099,22.749,7.418,30.848-1.52l47.049-51.925c1.483-1.637,4.013-1.762,5.65-0.278l55.782,50.544&#10;&#9;&#9;&#9;&#9;c8.938,8.098,22.749,7.417,30.848-1.52L399.292,78.567c2.16-2.383,5.843-2.565,8.226-0.405l18.552,16.809&#10;&#9;&#9;&#9;&#9;c3.742,3.391,9.732,0.737,9.734-4.314l0.029-77.331c0.001-3.444-2.971-6.137-6.398-5.797l-76.954,7.631&#10;&#9;&#9;&#9;&#9;c-5.026,0.498-7.078,6.72-3.336,10.111l17.374,15.743c2.383,2.16,2.565,5.843,0.405,8.226L238.501,190.975&#10;&#9;&#9;&#9;&#9;C237.017,192.612,234.488,192.737,232.851,191.253z"/>
		</g>
	</g>
	<g>
		<g>
			<path style="fill:none;stroke:#000000;stroke-width:15;stroke-linecap:round;stroke-linejoin:round;stroke-miterlimit:10;" d="&#10;&#9;&#9;&#9;&#9;M82.79,346.11v-56.13c0-3.86,3.14-7,7-7h63.04c3.87,0,7,3.14,7,7v56.13"/>
			<path style="fill:none;stroke:#000000;stroke-width:15;stroke-linecap:round;stroke-linejoin:round;stroke-miterlimit:10;" d="&#10;&#9;&#9;&#9;&#9;M294.78,193.92c0.03,0.27,0.05,0.54,0.05,0.81v151.38"/>
			
				<line style="fill:none;stroke:#000000;stroke-width:15;stroke-linecap:round;stroke-linejoin:round;stroke-miterlimit:10;" x1="217.79" y1="346.11" x2="217.79" y2="236.55"/>
			<path style="fill:none;stroke:#000000;stroke-width:15;stroke-linecap:round;stroke-linejoin:round;stroke-miterlimit:10;" d="&#10;&#9;&#9;&#9;&#9;M360.82,121.03h62.01c3.87,0,7,3.13,7,7v218.08"/>
			
				<line style="fill:none;stroke:#000000;stroke-width:15;stroke-linecap:round;stroke-linejoin:round;stroke-miterlimit:10;" x1="352.79" y1="346.11" x2="352.79" y2="129.89"/>
		</g>
		<g>
			<path style="fill:none;stroke:#000000;stroke-width:15;stroke-linecap:round;stroke-linejoin:round;stroke-miterlimit:10;" d="&#10;&#9;&#9;&#9;&#9;M35.533,414.539v-38.425c0-16.569,13.431-30,30-30h380.935c16.569,0,30,13.431,30,30V474.5c0,16.569-13.431,30-30,30H65.533&#10;&#9;&#9;&#9;&#9;c-16.569,0-30-13.431-30-30v-24.961"/>
			<g>
				<g>
					
						<line style="fill:none;stroke:#000000;stroke-width:15;stroke-linecap:round;stroke-linejoin:round;stroke-miterlimit:10;" x1="361.722" y1="394.001" x2="361.722" y2="456.612"/>
				</g>
				<g>
					
						<polyline style="fill:none;stroke:#000000;stroke-width:15;stroke-linecap:round;stroke-linejoin:round;stroke-miterlimit:10;" points="&#10;&#9;&#9;&#9;&#9;&#9;&#9;331.611,394.231 306.42,394.231 306.42,456.383 &#9;&#9;&#9;&#9;&#9;"/>
					
						<line style="fill:none;stroke:#000000;stroke-width:15;stroke-linecap:round;stroke-linejoin:round;stroke-miterlimit:10;" x1="306.42" y1="424.718" x2="329.61" y2="424.718"/>
				</g>
				<g>
					
						<line style="fill:none;stroke:#000000;stroke-width:15;stroke-linecap:round;stroke-linejoin:round;stroke-miterlimit:10;" x1="391.429" y1="394.001" x2="426.006" y2="394.001"/>
					
						<line style="fill:none;stroke:#000000;stroke-width:15;stroke-linecap:round;stroke-linejoin:round;stroke-miterlimit:10;" x1="408.648" y1="396.001" x2="408.648" y2="456.612"/>
				</g>
				<g>
					
						<line style="fill:none;stroke:#000000;stroke-width:15;stroke-linecap:round;stroke-linejoin:round;stroke-miterlimit:10;" x1="159.343" y1="426.729" x2="185.643" y2="456.612"/>
					
						<line style="fill:none;stroke:#000000;stroke-width:15;stroke-linecap:round;stroke-linejoin:round;stroke-miterlimit:10;" x1="151.792" y1="394.001" x2="151.792" y2="456.612"/>
					<path style="fill:none;stroke:#000000;stroke-width:15;stroke-linecap:round;stroke-linejoin:round;stroke-miterlimit:10;" d="&#10;&#9;&#9;&#9;&#9;&#9;&#9;M185.643,410.273c0,8.987-7.88,16.272-17.193,16.272c-4.619,0-16.522,0.072-16.522,0.072s-0.074-11.814-0.074-16.344&#10;&#9;&#9;&#9;&#9;&#9;&#9;c0-3.72-0.041-16.272-0.041-16.272s11.181,0,16.638,0C177.763,394.001,185.643,401.287,185.643,410.273z"/>
				</g>
				<g>
					
						<line style="fill:none;stroke:#000000;stroke-width:15;stroke-linecap:round;stroke-linejoin:round;stroke-miterlimit:10;" x1="85.994" y1="394.001" x2="85.994" y2="456.612"/>
					<path style="fill:none;stroke:#000000;stroke-width:15;stroke-linecap:round;stroke-linejoin:round;stroke-miterlimit:10;" d="&#10;&#9;&#9;&#9;&#9;&#9;&#9;M121.442,411.67c0,9.758-8.257,17.669-18.015,17.669c-4.839,0-17.312,0.078-17.312,0.078s-0.078-12.828-0.078-17.747&#10;&#9;&#9;&#9;&#9;&#9;&#9;c0-4.04-0.043-17.669-0.043-17.669s11.715,0,17.434,0C113.185,394.001,121.442,401.912,121.442,411.67z"/>
				</g>
				
					<circle style="fill:none;stroke:#000000;stroke-width:15;stroke-linecap:round;stroke-linejoin:round;stroke-miterlimit:10;" cx="244.718" cy="425.307" r="31.305"/>
			</g>
		</g>
		<g>
			<path style="fill:none;stroke:#000000;stroke-width:15;stroke-linecap:round;stroke-linejoin:round;stroke-miterlimit:10;" d="&#10;&#9;&#9;&#9;&#9;M309.945,112.125l-71.444,78.85c-1.483,1.637-4.013,1.762-5.65,0.278l-55.472-50.263c-2.81-2.546-6.172-4.462-9.862-5.336&#10;&#9;&#9;&#9;&#9;c-7.955-1.885-16.038,0.773-21.296,6.576l-64.398,71.073c-8.099,8.938-7.418,22.749,1.52,30.848l0,0&#10;&#9;&#9;&#9;&#9;c8.938,8.099,22.749,7.418,30.848-1.52l47.049-51.925c1.483-1.637,4.013-1.762,5.65-0.278l55.782,50.544&#10;&#9;&#9;&#9;&#9;c8.938,8.098,22.749,7.417,30.848-1.52L399.292,78.567c2.16-2.383,5.843-2.565,8.226-0.405l18.552,16.809&#10;&#9;&#9;&#9;&#9;c3.742,3.391,9.732,0.737,9.734-4.314l0.029-77.331c0.001-3.444-2.971-6.137-6.398-5.797l-76.954,7.631&#10;&#9;&#9;&#9;&#9;c-5.026,0.498-7.078,6.72-3.336,10.111l17.374,15.743c2.383,2.16,2.565,5.843,0.405,8.226l-33.303,36.755"/>
		</g>
	</g>
</g>















</svg>
