<svg xmlns="http://www.w3.org/2000/svg" version="1.1" xmlns:xlink="http://www.w3.org/1999/xlink" xmlns:svgjs="http://svgjs.com/svgjs" width="512" height="512" x="0" y="0" viewBox="0 0 300 300" style="enable-background:new 0 0 512 512" xml:space="preserve" class=""><g><linearGradient id="SVGID_1_" gradientUnits="userSpaceOnUse" x1="46.035" x2="247.345" y1="276.747" y2="75.437"><stop stop-opacity="1" stop-color="#ff4069" offset="0"></stop><stop stop-opacity="1" stop-color="#ff4069" offset="1"></stop></linearGradient><g><path d="m90.625 61.323 3.719-3.72-3.719-3.72c-1.562-1.562-1.562-4.096 0-5.656 1.562-1.562 4.094-1.562 5.656 0l3.719 3.719 3.719-3.719c1.562-1.562 4.094-1.562 5.656 0 1.562 1.561 1.562 4.094 0 5.656l-3.719 3.72 3.719 3.72c1.562 1.562 1.562 4.096 0 5.656-.781.781-1.805 1.172-2.828 1.172s-2.047-.391-2.828-1.172l-3.719-3.719-3.719 3.719c-.781.781-1.805 1.172-2.828 1.172s-2.047-.391-2.828-1.172c-1.563-1.561-1.563-4.094 0-5.656zm94.244-7.862c1.948-1.948 1.948-5.107 0-7.055s-5.107-1.948-7.055 0-1.948 5.107 0 7.055 5.107 1.948 7.055 0zm93.131 149.594v24c0 2.209-1.789 4-4 4h-28v20c0 2.209-1.789 4-4 4h-216c-2.211 0-4-1.791-4-4v-24c0-2.209 1.789-4 4-4h28v-16h-16c-2.211 0-4-1.791-4-4v-96c0-2.209 1.789-4 4-4h216c2.211 0 4 1.791 4 4v92h16c2.211 0 4 1.791 4 4zm-28-92h-72v88h72zm-140 136h48v-16h-48zm60-48v-88h-48v88zm-128 0h16 56v-88h-72zm20 24h72v-16h-72zm-32 24h72v-4h-12c-2.211 0-4-1.791-4-4s1.789-4 4-4h12v-4h-44-28zm208-16h-72v16h72v-4h-20c-2.211 0-4-1.791-4-4s1.789-4 4-4h20zm32-24h-16-56v4h28c2.211 0 4 1.791 4 4s-1.789 4-4 4h-28v4h44 28zm-196.332-84h24.332c2.211 0 4-1.791 4-4s-1.789-4-4-4h-28c-2.211 0-4 1.791-4 4 0 8.822-7.176 16-16 16-2.211 0-4 1.791-4 4v28c0 2.209 1.789 4 4 4s4-1.791 4-4v-24.334c10.035-1.689 17.977-9.631 19.668-19.666zm-19.668 4c2.209 0 4-1.791 4-4s-1.791-4-4-4-4 1.791-4 4 1.791 4 4 4zm140 68h28c2.211 0 4-1.791 4-4 0-8.822 7.176-16 16-16 2.211 0 4-1.791 4-4v-28c0-2.209-1.789-4-4-4s-4 1.791-4 4v24.334c-10.035 1.689-17.977 9.631-19.668 19.666h-24.332c-2.211 0-4 1.791-4 4s1.789 4 4 4zm44-12c-2.209 0-4 1.791-4 4s1.791 4 4 4 4-1.791 4-4-1.791-4-4-4zm-76-28v12c0 2.209-1.789 4-4 4h-8v4c0 2.209-1.789 4-4 4s-4-1.791-4-4v-4h-8c-2.211 0-4-1.791-4-4s1.789-4 4-4h8v-4h-8c-2.211 0-4-1.791-4-4v-12c0-2.209 1.789-4 4-4h8v-4c0-2.209 1.789-4 4-4s4 1.791 4 4v4h8c2.211 0 4 1.791 4 4s-1.789 4-4 4h-8v4h8c2.211 0 4 1.791 4 4zm-20-4v-4h-4v4zm12 8h-4v4h4zm-36 52h-44c-2.211 0-4 1.791-4 4s1.789 4 4 4h44c2.211 0 4-1.791 4-4s-1.789-4-4-4zm-44 24h-32c-2.211 0-4 1.791-4 4s1.789 4 4 4h32c2.211 0 4-1.791 4-4s-1.789-4-4-4zm72-140c2.211 0 4-1.791 4-4v-16c0-2.209-1.789-4-4-4s-4 1.791-4 4v16c0 2.209 1.789 4 4 4zm12 0c1.023 0 2.047-.391 2.828-1.172l4-4c1.562-1.562 1.562-4.094 0-5.656s-4.094-1.562-5.656 0l-4 4c-1.562 1.562-1.562 4.094 0 5.656.781.781 1.805 1.172 2.828 1.172zm-26.828-1.172c.781.781 1.805 1.172 2.828 1.172s2.047-.391 2.828-1.172c1.562-1.562 1.562-4.094 0-5.656l-4-4c-1.562-1.562-4.094-1.562-5.656 0s-1.562 4.094 0 5.656zm94.828-10.828c0-6.617 5.383-12 12-12s12 5.383 12 12-5.383 12-12 12-12-5.383-12-12zm8 0c0 2.205 1.793 4 4 4s4-1.795 4-4-1.793-4-4-4-4 1.795-4 4z" fill="url(#SVGID_1_)" data-original="url(#SVGID_1_)"></path></g></g></svg>