<svg xmlns="http://www.w3.org/2000/svg" version="1.1" xmlns:xlink="http://www.w3.org/1999/xlink" xmlns:svgjs="http://svgjs.com/svgjs" width="512" height="512" x="0" y="0" viewBox="0 0 300 300" style="enable-background:new 0 0 512 512" xml:space="preserve" class=""><g><linearGradient id="SVGID_1_" gradientUnits="userSpaceOnUse" x1="46.957" x2="259.417" y1="238.615" y2="26.155"><stop stop-opacity="1" stop-color="#ff4069" offset="0"></stop><stop stop-opacity="1" stop-color="#ff4069" offset="1"></stop></linearGradient><g><path d="m263.102 36h-226.204c-8.214 0-14.898 6.684-14.898 14.898v50.203c0 7.313 5.307 13.382 12.266 14.632 1.251 6.96 7.319 12.267 14.632 12.267h117.102v61.004c-4.176-4.977-9.414-11.219-13.434-15.996-5.262-6.256-14.695-7.094-21.234-1.701-5.832 4.807-7.055 13.164-2.84 19.443l38.074 56.697c6.957 10.365 18.59 16.553 31.117 16.553h33.141c12.778 0 23.176-10.398 23.176-23.178v-75.234c0-7.492-6.281-13.588-14-13.588-2.18 0-4.22.529-6.062 1.395-.324-7.433-6.426-13.395-13.938-13.395-3.895 0-7.417 1.605-9.957 4.181-2.547-2.569-6.1-4.181-10.043-4.181-2.155 0-4.174.517-6 1.37v-13.37h57.102c7.313 0 13.382-5.307 14.632-12.266 6.959-1.25 12.266-7.319 12.266-14.632v-50.204c0-8.214-6.684-14.898-14.898-14.898zm-63.102 112c3.309 0 6 2.539 6 5.66v.34 30c0 2.209 1.789 4 4 4s4-1.791 4-4v-30c0-3.309 2.691-6 6-6s6 2.691 6 6v11.588 18.412 2.461c0 2.209 1.789 4 4 4s4-1.791 4-4v-2.461-18.412c0-3.082 2.691-5.588 6-5.588s6 2.506 6 5.588v75.234c0 8.369-6.809 15.178-15.176 15.178h-33.141c-9.855 0-19.008-4.863-24.477-13.012l-38.074-56.697c-1.91-2.846-1.355-6.635 1.492-8.982 2.965-2.443 7.363-2.064 9.82.85 7.898 9.385 20.488 24.41 20.488 24.41 1.086 1.291 2.859 1.764 4.434 1.191 1.582-.576 2.633-2.078 2.633-3.76v-90c0-3.309 2.691-6 6-6s6 2.691 6 6v43.66.906 29.434c0 2.209 1.789 4 4 4s4-1.791 4-4v-29.434-.906c.001-3.121 2.692-5.66 6.001-5.66zm70-46.898c0 3.805-3.094 6.898-6.898 6.898h-69.304c-.981-6.767-6.764-12-13.798-12s-12.817 5.233-13.798 12h-129.304c-3.805 0-6.898-3.094-6.898-6.898v-50.204c0-3.804 3.094-6.898 6.898-6.898h226.203c3.805 0 6.898 3.094 6.898 6.898v50.204zm-228-37.102v8h8c4.41 0 8 3.588 8 8v8c0 4.412-3.59 8-8 8h-12c-2.211 0-4-1.791-4-4s1.789-4 4-4h12v-8h-8c-4.41 0-8-3.588-8-8v-8c0-4.412 3.59-8 8-8h12c2.211 0 4 1.791 4 4s-1.789 4-4 4zm84 0v8h8c4.41 0 8 3.588 8 8v8c0 4.412-3.59 8-8 8h-12c-2.211 0-4-1.791-4-4s1.789-4 4-4h12v-8h-8c-4.41 0-8-3.588-8-8v-8c0-4.412 3.59-8 8-8h12c2.211 0 4 1.791 4 4s-1.789 4-4 4zm-40 122c0-7.719-6.281-14-14-14s-14 6.281-14 14 6.281 14 14 14 14-6.281 14-14zm-14 6c-3.309 0-6-2.691-6-6s2.691-6 6-6 6 2.691 6 6-2.691 6-6 6zm2 32c2.211 0 4 1.791 4 4v8c0 2.209-1.789 4-4 4s-4-1.791-4-4v-8c0-2.209 1.789-4 4-4zm4 28v8c0 2.209-1.789 4-4 4s-4-1.791-4-4v-8c0-2.209 1.789-4 4-4s4 1.791 4 4zm-8-8c0 2.209-1.789 4-4 4h-8c-2.211 0-4-1.791-4-4s1.789-4 4-4h8c2.211 0 4 1.791 4 4zm24 0c0 2.209-1.789 4-4 4h-8c-2.211 0-4-1.791-4-4s1.789-4 4-4h8c2.211 0 4 1.791 4 4zm-8-184v28c0 4.412-3.59 8-8 8h-8c-4.41 0-8-3.588-8-8v-28c0-2.209 1.789-4 4-4s4 1.791 4 4v28h8v-28c0-2.209 1.789-4 4-4s4 1.791 4 4zm20-4h-12c-2.211 0-4 1.791-4 4v16 16c0 2.209 1.789 4 4 4h12c4.41 0 8-3.588 8-8v-8c0-1.464-.424-2.819-1.113-4 .689-1.181 1.113-2.536 1.113-4v-8c0-4.412-3.59-8-8-8zm-8 8h8l.004 8h-.004-8zm0 24v-8h8l.004 8zm152-24v8h12c2.211 0 4 1.791 4 4s-1.789 4-4 4h-12v8h12c2.211 0 4 1.791 4 4s-1.789 4-4 4h-16c-2.211 0-4-1.791-4-4v-32c0-2.209 1.789-4 4-4h16c2.211 0 4 1.791 4 4s-1.789 4-4 4zm-20-8h-12c-2.211 0-4 1.791-4 4v16 16c0 2.209 1.789 4 4 4h12c4.41 0 8-3.588 8-8v-8c0-1.464-.424-2.819-1.113-4 .689-1.181 1.113-2.536 1.113-4v-8c0-4.412-3.59-8-8-8zm-8 8h8l.004 8h-.004-8zm0 24v-8h8l.004 8zm-32-32h-12c-2.211 0-4 1.791-4 4v16 16c0 2.209 1.789 4 4 4s4-1.791 4-4v-12h.656l7.859 13.961c.734 1.307 2.09 2.039 3.488 2.039.664 0 1.336-.166 1.957-.514 1.926-1.084 2.609-3.523 1.523-5.447l-5.761-10.237c3.584-.792 6.278-3.983 6.278-7.802v-8c0-4.412-3.59-8-8-8zm-8 16v-8h8l.004 8h-5.008zm-28-8v24h12c2.211 0 4 1.791 4 4s-1.789 4-4 4h-12c-4.41 0-8-3.588-8-8v-24c0-4.412 3.59-8 8-8h12c2.211 0 4 1.791 4 4s-1.789 4-4 4zm56-4v32c0 2.209-1.789 4-4 4s-4-1.791-4-4v-32c0-2.209 1.789-4 4-4s4 1.791 4 4zm-85.471 158c0 2.501-2.028 4.53-4.529 4.53-2.502 0-4.53-2.028-4.53-4.53s2.028-4.53 4.53-4.53c2.501 0 4.529 2.028 4.529 4.53z" fill="url(#SVGID_1_)" data-original="url(#SVGID_1_)"></path></g></g></svg>