<svg height="512pt" viewBox="0 -41 512.00101 512" width="512pt" xmlns="http://www.w3.org/2000/svg"><path d="m238.429688 35.699219h35.144531v86.691406h-35.144531zm0 0" fill="#d2d2d7"/><path d="m285.289062 50.929688h-58.578124c-11.96875 0-21.671876-9.703126-21.671876-21.671876s9.703126-21.671874 21.671876-21.671874h58.578124c11.96875 0 21.671876 9.703124 21.671876 21.671874s-9.703126 21.671876-21.671876 21.671876zm0 0" fill="#b9b9be"/><path d="m483.636719 316.730469v68.496093h-455.273438v-68.496093c0-138.707031 124.011719-246.773438 266.003907-223.382813 107.382812 17.722656 189.269531 110.988282 189.269531 223.382813zm0 0" fill="#b9b9be"/><path d="m483.636719 316.730469v68.496093h-378.539063v-68.496093c0-112.394531 81.898438-205.660157 189.269532-223.382813 107.382812 17.722656 189.269531 110.988282 189.269531 223.382813zm0 0" fill="#d2d2d7"/><path d="m504.421875 393.191406v.910156c0 15.570313-12.621094 28.179688-28.183594 28.179688h-440.476562c-15.5625 0-28.183594-12.609375-28.183594-28.179688v-.910156c0-13.074218 8.914063-24.078125 20.996094-27.253906 2.296875-.605469 4.699219-.929688 7.1875-.929688h440.476562c12.984375 0 23.929688 8.792969 27.183594 20.746094.65625 2.363282 1 4.859375 1 7.4375zm0 0" fill="#5a5f64"/><path d="m503.421875 385.753906h-445.835937c-13.195313 0-24.484376-8.214844-29.011719-19.816406 2.296875-.605469 4.699219-.929688 7.1875-.929688h440.476562c12.984375 0 23.929688 8.792969 27.183594 20.746094zm0 0" fill="#7d8287"/><path d="m355.824219 231.910156v53.796875c0 8.722657-2.6875 16.84375-7.285157 23.585938-7.578124 11.125-20.351562 18.46875-34.761718 18.46875h-82.878906c-10.890626 0-19.804688-8.910157-19.804688-19.804688v-91.164062c0-10.890625 8.914062-19.804688 19.804688-19.804688h18.046874c1.75 0 3.398438-.777343 4.507813-2.128906l42.480469-51.28125c7.296875-8.863281 20.257812-10.984375 29.667968-4.417969 10.519532 7.355469 12.378907 22.089844 4.375 31.808594l-13.632812 16.53125c-3.0625 3.832031-.332031 9.488281 4.558594 9.488281 9.648437 0 18.378906 3.910157 24.695312 10.226563 6.316406 6.324218 10.226563 15.054687 10.226563 24.695312zm0 0" fill="#ffa90b"/><path d="m156.171875 310.691406v-99.617187c0-6.863281 5.5625-12.425781 12.429687-12.425781h27.789063c8.085937 0 14.703125 6.617187 14.703125 14.703124v95.0625c0 8.085938-6.617188 14.703126-14.703125 14.703126h-27.789063c-6.867187.003906-12.429687-5.5625-12.429687-12.425782zm0 0" fill="#2476ed"/><path d="m342.730469 153.015625c-3.5625-25.996094-36.316407-34.886719-53.019531-14.59375l-41.820313 50.484375c-11.328125 1.066406-24.425781-3.507812-36.203125 7.699219-4.046875-3.671875-9.414062-5.914063-15.296875-5.914063h-27.789063c-11.3125 0-20.511718 9.199219-20.511718 20.511719v99.613281c0 11.3125 9.199218 20.511719 20.511718 20.511719h27.789063c5.195313 0 9.984375-1.75 13.824219-4.6875 5.105468 5.648437 12.484375 9.207031 20.683594 9.207031h82.875c27.648437 0 50.140624-22.492187 50.140624-50.136718v-53.796876c0-22.171874-16.867187-40.480468-38.445312-42.765624l10.75-13.042969c5.269531-6.40625 7.644531-14.824219 6.511719-23.089844zm-139.71875 155.527344c0 3.648437-2.972657 6.617187-6.621094 6.617187h-27.789063c-2.398437 0-4.34375-1.949218-4.34375-4.34375v-99.613281c0-2.394531 1.945313-4.34375 4.34375-4.34375h27.789063c3.648437 0 6.621094 2.96875 6.621094 6.617187zm107.023437-126.089844c-7.285156 9.101563-.820312 22.621094 10.867188 22.621094 14.800781 0 26.839844 12.039062 26.839844 26.839843v53.792969c0 18.730469-15.238282 33.96875-33.96875 33.96875h-82.878907c-6.460937 0-11.71875-5.253906-11.71875-11.714843v-91.167969c0-6.464844 5.257813-11.71875 11.71875-11.71875h18.050781c4.175782 0 8.09375-1.851563 10.734376-5.054688l42.5-51.304687c7.765624-9.4375 22.875-5.601563 24.535156 6.496094 1.15625 8.472656-4.003906 11.398437-16.679688 27.242187zm0 0"/><path d="m124.335938 141.011719c31.488281-23.414063 67.914062-37.671875 106.515624-41.835938 129.191407-14.035156 236.886719 81.722657 244.742188 203.234375.261719 4.011719 3.597656 7.09375 7.558594 7.09375.160156 0 .324218-.007812.496094-.019531 4.171874-.273437 7.34375-3.871094 7.070312-8.054687-7.445312-115.144532-97.535156-206.085938-209.570312-217.480469v-25.441407h4.132812c16.140625 0 29.253906-13.128906 29.253906-29.253906 0-16.128906-13.113281-29.253906-29.253906-29.253906h-58.5625c-16.140625 0-29.253906 13.125-29.253906 29.253906 0 16.125 13.113281 29.253906 29.253906 29.253906h4.132812v25.429688c-41.886718 4.226562-81.433593 19.535156-115.566406 44.90625-3.355468 2.496094-4.054687 7.246094-1.558594 10.609375 2.496094 3.355469 7.246094 4.054687 10.609376 1.558594zm141.65625-58.101563c-5.859376-.246094-14.238282-.230468-19.984376-.011718v-24.390626h19.984376zm-39.273438-39.5625c-7.773438 0-14.097656-6.324218-14.097656-14.09375 0-7.769531 6.324218-14.097656 14.097656-14.097656h58.5625c7.773438 0 14.097656 6.328125 14.097656 14.097656 0 7.769532-6.324218 14.09375-14.097656 14.09375-17.851562 0-40.777344 0-58.5625 0zm0 0"/><path d="m491.214844 360.726562v-28.507812c0-4.183594-3.394532-7.578125-7.578125-7.578125-4.195313 0-7.578125 3.394531-7.578125 7.578125v25.207031h-440.117188v-40.695312c0-59.515625 23.484375-115.171875 66.113282-156.722657 2.992187-2.921874 3.054687-7.722656.132812-10.722656-2.921875-2.992187-7.71875-3.050781-10.710938-.128906-45.582031 44.417969-70.691406 103.933594-70.691406 167.574219v43.996093c-12.257812 5.679688-20.785156 18.09375-20.785156 32.464844v.910156c0 19.71875 16.042969 35.761719 35.761719 35.761719h22.757812c4.1875 0 7.578125-3.390625 7.578125-7.578125s-3.390625-7.578125-7.578125-7.578125h-22.757812c-11.359375 0-20.605469-9.242187-20.605469-20.605469v-.910156c0-11.34375 9.21875-20.574218 20.554688-20.605468h440.578124c11.339844.03125 20.554688 9.261718 20.554688 20.605468v.910156c0 11.359376-9.246094 20.605469-20.605469 20.605469h-387.402343c-4.1875 0-7.578126 3.390625-7.578126 7.578125s3.390626 7.578125 7.578126 7.578125h387.402343c19.71875 0 35.761719-16.042969 35.761719-35.761719v-.910156c0-14.371094-8.527344-26.785156-20.785156-32.464844zm0 0"/></svg>