<svg xmlns="http://www.w3.org/2000/svg" version="1.1" xmlns:xlink="http://www.w3.org/1999/xlink" xmlns:svgjs="http://svgjs.com/svgjs" width="512" height="512" x="0" y="0" viewBox="0 0 300 300" style="enable-background:new 0 0 512 512" xml:space="preserve" class=""><g><linearGradient id="SVGID_1_" gradientUnits="userSpaceOnUse" x1="32.668" x2="242.208" y1="252.997" y2="43.457"><stop stop-opacity="1" stop-color="#ff4069" offset="0"></stop><stop stop-opacity="1" stop-color="#ff4069" offset="1"></stop></linearGradient><g><path d="m258 172h-16c-2.211 0-4 1.789-4 4v16h-12c-2.211 0-4 1.789-4 4v28c0 2.211 1.789 4 4 4h32c2.211 0 4-1.789 4-4v-48c0-2.211-1.789-4-4-4zm-28 28h8v20h-8zm24 20h-8v-24-16h8zm-144 22c0 5.523-4.477 10-10 10s-10-4.477-10-10 4.477-10 10-10 10 4.477 10 10zm15.305-114h-11.305v-2.74c9.443-4.506 16-14.12 16-25.26v-19.156c0-8.707-6.195-15.98-14.373-17.57-1.502-4.234-5.525-7.273-10.24-7.273h-13.645c-9.783-.001-17.742 8.026-17.742 17.894v26.105c0 11.14 6.557 20.754 16 25.26v2.74h-11.305c-9.205 0-16.695 7.488-16.695 16.695v7.305c0 2.211 1.791 4 4 4h72c2.211 0 4-1.789 4-4v-7.305c0-9.207-7.488-16.695-16.695-16.695zm-27.305 15.263c1.257.448 2.591.737 4 .737s2.743-.289 4-.737v4.737h-8zm-16-43.263v-6.496l5.5-5.742c5.008 2.344 15.697 5.645 28.887-.117l5.613 5.859v6.496c0 11.027-8.973 20-20 20s-20-8.973-20-20zm20 28c1.362 0 2.69-.131 4-.32v4.32c0 2.207-1.795 4-4 4s-4-1.793-4-4v-4.32c1.31.189 2.638.32 4 .32zm-32 16.695c0-4.793 3.9-8.695 8.695-8.695h11.305v12h-20zm64 3.305h-20v-12h11.305c4.793 0 8.695 3.902 8.695 8.695zm4 16h-72c-2.209 0-4 1.789-4 4v12c0 2.211 1.791 4 4 4h72c2.211 0 4-1.789 4-4v-12c0-2.211-1.789-4-4-4zm-4 12h-64v-4h64zm-72 16c0-2.211 1.791-4 4-4h24c2.209 0 4 1.789 4 4s-1.791 4-4 4h-24c-2.209 0-4-1.789-4-4zm40 4c-2.209 0-4-1.789-4-4s1.791-4 4-4h12c2.209 0 4 1.789 4 4s-1.791 4-4 4zm32 8c0 2.211-1.789 4-4 4h-64c-2.209 0-4-1.789-4-4s1.791-4 4-4h64c2.211 0 4 1.789 4 4zm128-80h-40c-2.211 0-4 1.789-4 4v8h-14c-3.309 0-6-2.691-6-6 0-7.719-6.281-14-14-14h-14v-8h40c11.027 0 20-8.973 20-20 0-.245-.097-.458-.139-.691 11.519-2.668 20.139-12.991 20.139-25.309 0-14.336-11.664-26-26-26s-26 11.664-26 26c0 13.668 10.609 24.882 24.02 25.9-.001.035-.02.065-.02.1 0 6.617-5.383 12-12 12h-40v-43.508c0-9.094-7.398-16.492-16.492-16.492h-103.018c-9.092 0-16.49 7.398-16.49 16.492v191.016c0 9.094 7.398 16.492 16.49 16.492h103.018c9.094 0 16.492-7.398 16.492-16.492v-107.142c2.322.825 4 3.022 4 5.623v44.023c0 7.715 6.273 13.988 13.988 13.988h26.012c2.211 0 4-1.789 4-4s-1.789-4-4-4h-26.012c-3.301 0-5.988-2.688-5.988-5.988v-44.023c0-7.034-5.232-12.812-12-13.787v-8.202h14c3.309 0 6 2.691 6 6 0 7.719 6.281 14 14 14h14v8c0 2.211 1.789 4 4 4h40c2.211 0 4-1.789 4-4v-24c0-2.211-1.789-4-4-4zm-56-62c0-9.926 8.074-18 18-18 1.033 0 2.03.137 3.016.305l-4.809 14.429c-.41 1.223-.203 2.562.547 3.605.754 1.044 1.961 1.661 3.246 1.661h15.798c-1.01 8.975-8.557 16-17.798 16-9.926 0-18-8.074-18-18zm-52.492 194h-103.018c-4.682 0-8.49-3.809-8.49-8.492v-19.508h120v19.508c0 4.683-3.809 8.492-8.492 8.492zm8.492-124h-16c-2.211 0-4 1.789-4 4s1.789 4 4 4h16v80h-120v-163.508c0-4.683 3.809-8.492 8.49-8.492h103.018c4.684 0 8.492 3.809 8.492 8.492v43.508h-16c-2.211 0-4 1.789-4 4s1.789 4 4 4h16v8h-16c-2.211 0-4 1.789-4 4s1.789 4 4 4h16zm96 16h-32v-16h32z" fill="url(#SVGID_1_)" data-original="url(#SVGID_1_)"></path></g></g></svg>